<?xml version="1.0" encoding="UTF-8" standalone="no"?>
<!DOCTYPE svg PUBLIC "-//W3C//DTD SVG 1.1//EN"
"http://www.w3.org/Graphics/SVG/1.1/DTD/svg11.dtd">
<!-- Generated by graphviz version 2.40.1 (20161225.0304)
-->
<!-- Title: G Pages: 1 -->
<svg width="451pt" height="144pt"
viewBox="0.00 0.00 451.13 143.83" xmlns="http://www.w3.org/2000/svg" xmlns:xlink="http://www.w3.org/1999/xlink">
<g id="graph0" class="graph" transform="scale(1 1) rotate(0) translate(4 139.8313)">
<title>G</title>
<polygon fill="#ffffff" stroke="transparent" points="-4,4 -4,-139.8313 447.1303,-139.8313 447.1303,4 -4,4"/>
<!-- user -->
<g id="node1" class="node">
<title>user</title>
<ellipse fill="none" stroke="#000000" cx="27.1221" cy="-67.4156" rx="27.2447" ry="18"/>
<text text-anchor="middle" x="27.1221" y="-63.2156" font-family="Times,serif" font-size="14.00" fill="#000000">user</text>
</g>
<!-- cdn -->
<g id="node2" class="node">
<title>cdn</title>
<ellipse fill="none" stroke="#000000" cx="122.6636" cy="-67.4156" rx="31.339" ry="18"/>
<text text-anchor="middle" x="122.6636" y="-63.2156" font-family="Times,serif" font-size="14.00" fill="#000000">CDN</text>
</g>
<!-- user&#45;&gt;cdn -->
<g id="edge1" class="edge">
<title>user&#45;&gt;cdn</title>
<path fill="none" stroke="#000000" d="M54.2449,-67.4156C62.5822,-67.4156 71.9586,-67.4156 81.0343,-67.4156"/>
<polygon fill="#000000" stroke="#000000" points="81.0818,-70.9157 91.0818,-67.4156 81.0818,-63.9157 81.0818,-70.9157"/>
</g>
<!-- cdn_cache -->
<g id="node3" class="node">
<title>cdn_cache</title>
<ellipse fill="none" stroke="#000000" cx="227.1316" cy="-67.4156" rx="36.0972" ry="29.3315"/>
<text text-anchor="middle" x="227.1316" y="-71.6156" font-family="Times,serif" font-size="14.00" fill="#000000">CDN</text>
<text text-anchor="middle" x="227.1316" y="-54.8156" font-family="Times,serif" font-size="14.00" fill="#000000">Cache</text>
</g>
<!-- cdn&#45;&gt;cdn_cache -->
<g id="edge2" class="edge">
<title>cdn&#45;&gt;cdn_cache</title>
<path fill="none" stroke="#000000" d="M154.2909,-67.4156C162.5784,-67.4156 171.69,-67.4156 180.5795,-67.4156"/>
<polygon fill="#000000" stroke="#000000" points="180.8503,-70.9157 190.8503,-67.4156 180.8503,-63.9157 180.8503,-70.9157"/>
</g>
<!-- b2 -->
<g id="node4" class="node">
<title>b2</title>
<ellipse fill="none" stroke="#000000" cx="390.5922" cy="-106.4156" rx="52.5764" ry="29.3315"/>
<text text-anchor="middle" x="390.5922" y="-110.6156" font-family="Times,serif" font-size="14.00" fill="#000000">Backblaze</text>
<text text-anchor="middle" x="390.5922" y="-93.8156" font-family="Times,serif" font-size="14.00" fill="#000000">B2</text>
</g>
<!-- cdn_cache&#45;&gt;b2 -->
<g id="edge3" class="edge">
<title>cdn_cache&#45;&gt;b2</title>
<path fill="none" stroke="#000000" d="M261.7974,-75.6865C282.2156,-80.5581 308.5789,-86.8481 332.13,-92.4672"/>
<polygon fill="#000000" stroke="#000000" points="331.4864,-95.9118 342.0257,-94.8282 333.111,-89.1029 331.4864,-95.9118"/>
<text text-anchor="middle" x="300.6171" y="-92.6156" font-family="Times,serif" font-size="14.00" fill="#000000">Maybe</text>
</g>
<!-- my_blog -->
<g id="node5" class="node">
<title>my_blog</title>
<ellipse fill="none" stroke="#000000" cx="390.5922" cy="-29.4156" rx="30.6326" ry="29.3315"/>
<text text-anchor="middle" x="390.5922" y="-33.6156" font-family="Times,serif" font-size="14.00" fill="#000000">My</text>
<text text-anchor="middle" x="390.5922" y="-16.8156" font-family="Times,serif" font-size="14.00" fill="#000000">Blog</text>
</g>
<!-- cdn_cache&#45;&gt;my_blog -->
<g id="edge4" class="edge">
<title>cdn_cache&#45;&gt;my_blog</title>
<path fill="none" stroke="#000000" d="M262.198,-59.2637C288.2339,-53.2111 323.7711,-44.9497 350.8582,-38.6527"/>
<polygon fill="#000000" stroke="#000000" points="351.8407,-42.0177 360.7884,-36.3442 350.2556,-35.1995 351.8407,-42.0177"/>
<text text-anchor="middle" x="300.6171" y="-58.6156" font-family="Times,serif" font-size="14.00" fill="#000000">Maybe</text>
</g>
</g>
</svg>
