<?xml version="1.0" encoding="UTF-8" standalone="no"?>
<!DOCTYPE svg PUBLIC "-//W3C//DTD SVG 1.1//EN"
 "http://www.w3.org/Graphics/SVG/1.1/DTD/svg11.dtd">
<!-- Generated by graphviz version 2.40.1 (20161225.0304)
 -->
<!-- Title: G Pages: 1 -->
<svg width="352pt" height="132pt"
 viewBox="0.00 0.00 351.67 131.83" xmlns="http://www.w3.org/2000/svg" xmlns:xlink="http://www.w3.org/1999/xlink">
<g id="graph0" class="graph" transform="scale(1 1) rotate(0) translate(4 127.8313)">
<title>G</title>
<polygon fill="#ffffff" stroke="transparent" points="-4,4 -4,-127.8313 347.6689,-127.8313 347.6689,4 -4,4"/>
<!-- user -->
<g id="node1" class="node">
<title>user</title>
<ellipse fill="none" stroke="#000000" cx="27.1221" cy="-41.4156" rx="27.2447" ry="18"/>
<text text-anchor="middle" x="27.1221" y="-37.2156" font-family="Times,serif" font-size="14.00" fill="#000000">user</text>
</g>
<!-- cdn -->
<g id="node2" class="node">
<title>cdn</title>
<ellipse fill="none" stroke="#000000" cx="127.4814" cy="-94.4156" rx="36.4761" ry="18"/>
<text text-anchor="middle" x="127.4814" y="-90.2156" font-family="Times,serif" font-size="14.00" fill="#000000">XeDN</text>
</g>
<!-- user&#45;&gt;cdn -->
<g id="edge2" class="edge">
<title>user&#45;&gt;cdn</title>
<path fill="none" stroke="#000000" d="M48.4057,-52.6556C61.4615,-59.5504 78.4761,-68.5358 93.3765,-76.4047"/>
<polygon fill="#000000" stroke="#000000" points="91.8494,-79.5563 102.3265,-81.1313 95.1183,-73.3665 91.8494,-79.5563"/>
</g>
<!-- my_blog -->
<g id="node4" class="node">
<title>my_blog</title>
<ellipse fill="none" stroke="#000000" cx="127.4814" cy="-29.4156" rx="30.6326" ry="29.3315"/>
<text text-anchor="middle" x="127.4814" y="-33.6156" font-family="Times,serif" font-size="14.00" fill="#000000">My</text>
<text text-anchor="middle" x="127.4814" y="-16.8156" font-family="Times,serif" font-size="14.00" fill="#000000">Blog</text>
</g>
<!-- user&#45;&gt;my_blog -->
<g id="edge1" class="edge">
<title>user&#45;&gt;my_blog</title>
<path fill="none" stroke="#000000" d="M54.0165,-38.1999C64.152,-36.988 75.9159,-35.5814 87.0197,-34.2537"/>
<polygon fill="#000000" stroke="#000000" points="87.4521,-37.727 96.9658,-33.0644 86.621,-30.7765 87.4521,-37.727"/>
</g>
<!-- b2 -->
<g id="node3" class="node">
<title>b2</title>
<ellipse fill="none" stroke="#000000" cx="291.1307" cy="-94.4156" rx="52.5764" ry="29.3315"/>
<text text-anchor="middle" x="291.1307" y="-98.6156" font-family="Times,serif" font-size="14.00" fill="#000000">Backblaze</text>
<text text-anchor="middle" x="291.1307" y="-81.8156" font-family="Times,serif" font-size="14.00" fill="#000000">B2</text>
</g>
<!-- cdn&#45;&gt;b2 -->
<g id="edge3" class="edge">
<title>cdn&#45;&gt;b2</title>
<path fill="none" stroke="#000000" d="M163.8005,-94.4156C182.7412,-94.4156 206.4519,-94.4156 228.2614,-94.4156"/>
<polygon fill="#000000" stroke="#000000" points="228.4538,-97.9157 238.4538,-94.4156 228.4537,-90.9157 228.4538,-97.9157"/>
<text text-anchor="middle" x="201.1556" y="-98.6156" font-family="Times,serif" font-size="14.00" fill="#000000">Maybe</text>
</g>
</g>
</svg>
