<svg width="172pt" height="283pt"
 viewBox="0.00 0.00 172.21 282.83" xmlns="http://www.w3.org/2000/svg" xmlns:xlink="http://www.w3.org/1999/xlink">
<g id="graph0" class="graph" transform="scale(1 1) rotate(0) translate(4 278.8313)">
<title>G</title>
<polygon fill="#ffffff" stroke="transparent" points="-4,4 -4,-278.8313 168.2109,-278.8313 168.2109,4 -4,4"/>
<!-- xesite -->
<g id="node1" class="node">
<title>xesite</title>
<ellipse fill="none" stroke="#000000" cx="33.5613" cy="-90" rx="33.6228" ry="18"/>
<text text-anchor="middle" x="33.5613" y="-85.8" font-family="Times,serif" font-size="14.00" fill="#000000">xesite</text>
</g>
<!-- iosevka -->
<g id="node2" class="node">
<title>iosevka</title>
<ellipse fill="none" stroke="#000000" cx="77.5613" cy="-18" rx="40.5693" ry="18"/>
<text text-anchor="middle" x="77.5613" y="-13.8" font-family="Times,serif" font-size="14.00" fill="#000000">iosevka</text>
</g>
<!-- xesite&#45;&gt;iosevka -->
<g id="edge1" class="edge">
<title>xesite&#45;&gt;iosevka</title>
<path fill="none" stroke="#000000" d="M44.2125,-72.5708C49.4164,-64.0553 55.787,-53.6308 61.5606,-44.183"/>
<polygon fill="#000000" stroke="#000000" points="64.6277,-45.8762 66.8557,-35.5182 58.6547,-42.226 64.6277,-45.8762"/>
</g>
<!-- XeDN -->
<g id="node3" class="node">
<title>XeDN</title>
<ellipse fill="none" stroke="#000000" cx="121.5613" cy="-90" rx="36.4761" ry="18"/>
<text text-anchor="middle" x="121.5613" y="-85.8" font-family="Times,serif" font-size="14.00" fill="#000000">XeDN</text>
</g>
<!-- XeDN&#45;&gt;iosevka -->
<g id="edge2" class="edge">
<title>XeDN&#45;&gt;iosevka</title>
<path fill="none" stroke="#000000" d="M110.9102,-72.5708C105.7062,-64.0553 99.3357,-53.6308 93.562,-44.183"/>
<polygon fill="#000000" stroke="#000000" points="96.468,-42.226 88.2669,-35.5182 90.495,-45.8762 96.468,-42.226"/>
</g>
<!-- Xess -->
<g id="node4" class="node">
<title>Xess</title>
<ellipse fill="none" stroke="#000000" cx="121.5613" cy="-162" rx="29.6127" ry="18"/>
<text text-anchor="middle" x="121.5613" y="-157.8" font-family="Times,serif" font-size="14.00" fill="#000000">Xess</text>
</g>
<!-- Xess&#45;&gt;XeDN -->
<g id="edge3" class="edge">
<title>Xess&#45;&gt;XeDN</title>
<path fill="none" stroke="#000000" d="M121.5613,-143.8314C121.5613,-136.131 121.5613,-126.9743 121.5613,-118.4166"/>
<polygon fill="#000000" stroke="#000000" points="125.0614,-118.4132 121.5613,-108.4133 118.0614,-118.4133 125.0614,-118.4132"/>
</g>
<!-- other -->
<g id="node5" class="node">
<title>other</title>
<ellipse fill="none" stroke="#000000" cx="121.5613" cy="-245.4156" rx="42.7997" ry="29.3315"/>
<text text-anchor="middle" x="121.5613" y="-249.6156" font-family="Times,serif" font-size="14.00" fill="#000000">other</text>
<text text-anchor="middle" x="121.5613" y="-232.8156" font-family="Times,serif" font-size="14.00" fill="#000000">projects</text>
</g>
<!-- other&#45;&gt;Xess -->
<g id="edge4" class="edge">
<title>other&#45;&gt;Xess</title>
<path fill="none" stroke="#000000" d="M121.5613,-215.7715C121.5613,-207.5664 121.5613,-198.6796 121.5613,-190.5388"/>
<polygon fill="#000000" stroke="#000000" points="125.0614,-190.3865 121.5613,-180.3866 118.0614,-190.3866 125.0614,-190.3865"/>
</g>
</g>
</svg>
