<?xml version="1.0" encoding="UTF-8" standalone="no"?>
<!DOCTYPE svg PUBLIC "-//W3C//DTD SVG 1.1//EN"
 "http://www.w3.org/Graphics/SVG/1.1/DTD/svg11.dtd">
<!-- Generated by graphviz version 2.40.1 (20161225.0304)
 -->
<!-- Title: %0 Pages: 1 -->
<svg width="2054pt" height="476pt"
 viewBox="0.00 0.00 2053.65 476.00" xmlns="http://www.w3.org/2000/svg" xmlns:xlink="http://www.w3.org/1999/xlink">
<g id="graph0" class="graph" transform="scale(1 1) rotate(0) translate(4 472)">
<title>%0</title>
<polygon fill="#ffffff" stroke="transparent" points="-4,4 -4,-472 2049.6495,-472 2049.6495,4 -4,4"/>
<!-- [root] aws_route53_record.prod_A (expand) -->
<g id="node1" class="node">
<title>[root] aws_route53_record.prod_A (expand)</title>
<polygon fill="none" stroke="#000000" points="712.7949,-324 536.6953,-324 536.6953,-288 712.7949,-288 712.7949,-324"/>
<text text-anchor="middle" x="624.7451" y="-301.8" font-family="Times,serif" font-size="14.00" fill="#000000">aws_route53_record.prod_A</text>
</g>
<!-- [root] data.aws_route53_zone.dns (expand) -->
<g id="node3" class="node">
<title>[root] data.aws_route53_zone.dns (expand)</title>
<polygon fill="none" stroke="#000000" points="709.9705,-252 539.5197,-252 539.5197,-216 709.9705,-216 709.9705,-252"/>
<text text-anchor="middle" x="624.7451" y="-229.8" font-family="Times,serif" font-size="14.00" fill="#000000">data.aws_route53_zone.dns</text>
</g>
<!-- [root] aws_route53_record.prod_A (expand)&#45;&gt;[root] data.aws_route53_zone.dns (expand) -->
<g id="edge1" class="edge">
<title>[root] aws_route53_record.prod_A (expand)&#45;&gt;[root] data.aws_route53_zone.dns (expand)</title>
<path fill="none" stroke="#000000" d="M624.7451,-287.8314C624.7451,-280.131 624.7451,-270.9743 624.7451,-262.4166"/>
<polygon fill="#000000" stroke="#000000" points="628.2452,-262.4132 624.7451,-252.4133 621.2452,-262.4133 628.2452,-262.4132"/>
</g>
<!-- [root] scaleway_instance_ip.prod (expand) -->
<g id="node9" class="node">
<title>[root] scaleway_instance_ip.prod (expand)</title>
<polygon fill="none" stroke="#000000" points="866.4663,-180 699.024,-180 699.024,-144 866.4663,-144 866.4663,-180"/>
<text text-anchor="middle" x="782.7451" y="-157.8" font-family="Times,serif" font-size="14.00" fill="#000000">scaleway_instance_ip.prod</text>
</g>
<!-- [root] aws_route53_record.prod_A (expand)&#45;&gt;[root] scaleway_instance_ip.prod (expand) -->
<g id="edge2" class="edge">
<title>[root] aws_route53_record.prod_A (expand)&#45;&gt;[root] scaleway_instance_ip.prod (expand)</title>
<path fill="none" stroke="#000000" d="M664.7611,-287.8984C682.4801,-278.7059 702.8582,-266.4203 718.7451,-252 738.7536,-233.8387 756.1291,-208.3961 767.7063,-189.194"/>
<polygon fill="#000000" stroke="#000000" points="770.8666,-190.724 772.91,-180.3281 764.8296,-187.1807 770.8666,-190.724"/>
</g>
<!-- [root] aws_route53_record.prod_AAAA (expand) -->
<g id="node2" class="node">
<title>[root] aws_route53_record.prod_AAAA (expand)</title>
<polygon fill="none" stroke="#000000" points="938.1142,-324 731.3761,-324 731.3761,-288 938.1142,-288 938.1142,-324"/>
<text text-anchor="middle" x="834.7451" y="-301.8" font-family="Times,serif" font-size="14.00" fill="#000000">aws_route53_record.prod_AAAA</text>
</g>
<!-- [root] aws_route53_record.prod_AAAA (expand)&#45;&gt;[root] data.aws_route53_zone.dns (expand) -->
<g id="edge3" class="edge">
<title>[root] aws_route53_record.prod_AAAA (expand)&#45;&gt;[root] data.aws_route53_zone.dns (expand)</title>
<path fill="none" stroke="#000000" d="M782.0243,-287.9243C753.1913,-278.0387 717.2971,-265.7321 687.082,-255.3726"/>
<polygon fill="#000000" stroke="#000000" points="688.0822,-252.0156 677.4876,-252.0831 685.8119,-258.6373 688.0822,-252.0156"/>
</g>
<!-- [root] scaleway_instance_server.prod (expand) -->
<g id="node10" class="node">
<title>[root] scaleway_instance_server.prod (expand)</title>
<polygon fill="none" stroke="#000000" points="1018.7711,-252 828.7191,-252 828.7191,-216 1018.7711,-216 1018.7711,-252"/>
<text text-anchor="middle" x="923.7451" y="-229.8" font-family="Times,serif" font-size="14.00" fill="#000000">scaleway_instance_server.prod</text>
</g>
<!-- [root] aws_route53_record.prod_AAAA (expand)&#45;&gt;[root] scaleway_instance_server.prod (expand) -->
<g id="edge4" class="edge">
<title>[root] aws_route53_record.prod_AAAA (expand)&#45;&gt;[root] scaleway_instance_server.prod (expand)</title>
<path fill="none" stroke="#000000" d="M857.2036,-287.8314C868.1656,-278.9632 881.515,-268.1637 893.3716,-258.5718"/>
<polygon fill="#000000" stroke="#000000" points="895.7207,-261.1734 901.2938,-252.1628 891.318,-255.7313 895.7207,-261.1734"/>
</g>
<!-- [root] provider[&quot;registry.terraform.io/hashicorp/aws&quot;] -->
<g id="node5" class="node">
<title>[root] provider[&quot;registry.terraform.io/hashicorp/aws&quot;]</title>
<polygon fill="none" stroke="#000000" points="274.7451,-180 -.2453,-162 274.7451,-144 549.7356,-162 274.7451,-180"/>
<text text-anchor="middle" x="274.7451" y="-157.8" font-family="Times,serif" font-size="14.00" fill="#000000">provider[&quot;registry.terraform.io/hashicorp/aws&quot;]</text>
</g>
<!-- [root] data.aws_route53_zone.dns (expand)&#45;&gt;[root] provider[&quot;registry.terraform.io/hashicorp/aws&quot;] -->
<g id="edge5" class="edge">
<title>[root] data.aws_route53_zone.dns (expand)&#45;&gt;[root] provider[&quot;registry.terraform.io/hashicorp/aws&quot;]</title>
<path fill="none" stroke="#000000" d="M539.1255,-216.3868C481.7793,-204.5899 406.9291,-189.1921 351.5151,-177.7927"/>
<polygon fill="#000000" stroke="#000000" points="351.903,-174.2993 341.4029,-175.7125 350.4925,-181.1557 351.903,-174.2993"/>
</g>
<!-- [root] var.route53_zone -->
<g id="node13" class="node">
<title>[root] var.route53_zone</title>
<polygon fill="none" stroke="#000000" points="675.3161,-180 568.1741,-180 568.1741,-144 681.3161,-144 681.3161,-174 675.3161,-180"/>
<polyline fill="none" stroke="#000000" points="675.3161,-180 675.3161,-174 "/>
<polyline fill="none" stroke="#000000" points="681.3161,-174 675.3161,-174 "/>
<text text-anchor="middle" x="624.7451" y="-157.8" font-family="Times,serif" font-size="14.00" fill="#000000">var.route53_zone</text>
</g>
<!-- [root] data.aws_route53_zone.dns (expand)&#45;&gt;[root] var.route53_zone -->
<g id="edge6" class="edge">
<title>[root] data.aws_route53_zone.dns (expand)&#45;&gt;[root] var.route53_zone</title>
<path fill="none" stroke="#000000" d="M624.7451,-215.8314C624.7451,-208.131 624.7451,-198.9743 624.7451,-190.4166"/>
<polygon fill="#000000" stroke="#000000" points="628.2452,-190.4132 624.7451,-180.4133 621.2452,-190.4133 628.2452,-190.4132"/>
</g>
<!-- [root] data.cloudinit_config.prod (expand) -->
<g id="node4" class="node">
<title>[root] data.cloudinit_config.prod (expand)</title>
<polygon fill="none" stroke="#000000" points="1439.769,-180 1275.7212,-180 1275.7212,-144 1439.769,-144 1439.769,-180"/>
<text text-anchor="middle" x="1357.7451" y="-157.8" font-family="Times,serif" font-size="14.00" fill="#000000">data.cloudinit_config.prod</text>
</g>
<!-- [root] provider[&quot;registry.terraform.io/hashicorp/cloudinit&quot;] -->
<g id="node6" class="node">
<title>[root] provider[&quot;registry.terraform.io/hashicorp/cloudinit&quot;]</title>
<polygon fill="none" stroke="#000000" points="1355.7451,-108 1053.6051,-90 1355.7451,-72 1657.8851,-90 1355.7451,-108"/>
<text text-anchor="middle" x="1355.7451" y="-85.8" font-family="Times,serif" font-size="14.00" fill="#000000">provider[&quot;registry.terraform.io/hashicorp/cloudinit&quot;]</text>
</g>
<!-- [root] data.cloudinit_config.prod (expand)&#45;&gt;[root] provider[&quot;registry.terraform.io/hashicorp/cloudinit&quot;] -->
<g id="edge7" class="edge">
<title>[root] data.cloudinit_config.prod (expand)&#45;&gt;[root] provider[&quot;registry.terraform.io/hashicorp/cloudinit&quot;]</title>
<path fill="none" stroke="#000000" d="M1357.2404,-143.8314C1357.0265,-136.131 1356.7722,-126.9743 1356.5345,-118.4166"/>
<polygon fill="#000000" stroke="#000000" points="1360.033,-118.3122 1356.2566,-108.4133 1353.0357,-118.5066 1360.033,-118.3122"/>
</g>
<!-- [root] tailscale_tailnet_key.prod (expand) -->
<g id="node11" class="node">
<title>[root] tailscale_tailnet_key.prod (expand)</title>
<polygon fill="none" stroke="#000000" points="1835.9775,-108 1675.5127,-108 1675.5127,-72 1835.9775,-72 1835.9775,-108"/>
<text text-anchor="middle" x="1755.7451" y="-85.8" font-family="Times,serif" font-size="14.00" fill="#000000">tailscale_tailnet_key.prod</text>
</g>
<!-- [root] data.cloudinit_config.prod (expand)&#45;&gt;[root] tailscale_tailnet_key.prod (expand) -->
<g id="edge8" class="edge">
<title>[root] data.cloudinit_config.prod (expand)&#45;&gt;[root] tailscale_tailnet_key.prod (expand)</title>
<path fill="none" stroke="#000000" d="M1439.8262,-148.2657C1499.7217,-138.1017 1583.1288,-123.6552 1665.2295,-108.2643"/>
<polygon fill="#000000" stroke="#000000" points="1666.0528,-111.6709 1675.2336,-106.3829 1664.759,-104.7915 1666.0528,-111.6709"/>
</g>
<!-- [root] provider[&quot;registry.terraform.io/scaleway/scaleway&quot;] -->
<g id="node7" class="node">
<title>[root] provider[&quot;registry.terraform.io/scaleway/scaleway&quot;]</title>
<polygon fill="none" stroke="#000000" points="734.7451,-108 434.2298,-90 734.7451,-72 1035.2604,-90 734.7451,-108"/>
<text text-anchor="middle" x="734.7451" y="-85.8" font-family="Times,serif" font-size="14.00" fill="#000000">provider[&quot;registry.terraform.io/scaleway/scaleway&quot;]</text>
</g>
<!-- [root] var.project_id -->
<g id="node12" class="node">
<title>[root] var.project_id</title>
<polygon fill="none" stroke="#000000" points="775.882,-36 687.6082,-36 687.6082,0 781.882,0 781.882,-30 775.882,-36"/>
<polyline fill="none" stroke="#000000" points="775.882,-36 775.882,-30 "/>
<polyline fill="none" stroke="#000000" points="781.882,-30 775.882,-30 "/>
<text text-anchor="middle" x="734.7451" y="-13.8" font-family="Times,serif" font-size="14.00" fill="#000000">var.project_id</text>
</g>
<!-- [root] provider[&quot;registry.terraform.io/scaleway/scaleway&quot;]&#45;&gt;[root] var.project_id -->
<g id="edge13" class="edge">
<title>[root] provider[&quot;registry.terraform.io/scaleway/scaleway&quot;]&#45;&gt;[root] var.project_id</title>
<path fill="none" stroke="#000000" d="M734.7451,-71.8314C734.7451,-64.131 734.7451,-54.9743 734.7451,-46.4166"/>
<polygon fill="#000000" stroke="#000000" points="738.2452,-46.4132 734.7451,-36.4133 731.2452,-46.4133 738.2452,-46.4132"/>
</g>
<!-- [root] provider[&quot;registry.terraform.io/tailscale/tailscale&quot;] -->
<g id="node8" class="node">
<title>[root] provider[&quot;registry.terraform.io/tailscale/tailscale&quot;]</title>
<polygon fill="none" stroke="#000000" points="1755.7451,-36 1465.9364,-18 1755.7451,0 2045.5539,-18 1755.7451,-36"/>
<text text-anchor="middle" x="1755.7451" y="-13.8" font-family="Times,serif" font-size="14.00" fill="#000000">provider[&quot;registry.terraform.io/tailscale/tailscale&quot;]</text>
</g>
<!-- [root] scaleway_instance_ip.prod (expand)&#45;&gt;[root] provider[&quot;registry.terraform.io/scaleway/scaleway&quot;] -->
<g id="edge19" class="edge">
<title>[root] scaleway_instance_ip.prod (expand)&#45;&gt;[root] provider[&quot;registry.terraform.io/scaleway/scaleway&quot;]</title>
<path fill="none" stroke="#000000" d="M770.6327,-143.8314C764.9922,-135.3707 758.1798,-125.1521 752.0127,-115.9014"/>
<polygon fill="#000000" stroke="#000000" points="754.8162,-113.7968 746.3569,-107.4177 748.9918,-117.6797 754.8162,-113.7968"/>
</g>
<!-- [root] scaleway_instance_server.prod (expand)&#45;&gt;[root] data.cloudinit_config.prod (expand) -->
<g id="edge20" class="edge">
<title>[root] scaleway_instance_server.prod (expand)&#45;&gt;[root] data.cloudinit_config.prod (expand)</title>
<path fill="none" stroke="#000000" d="M1018.9883,-218.1993C1092.2694,-206.0421 1192.9407,-189.3408 1265.4686,-177.3085"/>
<polygon fill="#000000" stroke="#000000" points="1266.2177,-180.7322 1275.51,-175.6427 1265.072,-173.8266 1266.2177,-180.7322"/>
</g>
<!-- [root] scaleway_instance_server.prod (expand)&#45;&gt;[root] scaleway_instance_ip.prod (expand) -->
<g id="edge21" class="edge">
<title>[root] scaleway_instance_server.prod (expand)&#45;&gt;[root] scaleway_instance_ip.prod (expand)</title>
<path fill="none" stroke="#000000" d="M888.1649,-215.8314C869.7126,-206.4089 846.9906,-194.8062 827.3722,-184.7883"/>
<polygon fill="#000000" stroke="#000000" points="828.8118,-181.5935 818.314,-180.1628 825.6283,-187.8278 828.8118,-181.5935"/>
</g>
<!-- [root] tailscale_tailnet_key.prod (expand)&#45;&gt;[root] provider[&quot;registry.terraform.io/tailscale/tailscale&quot;] -->
<g id="edge22" class="edge">
<title>[root] tailscale_tailnet_key.prod (expand)&#45;&gt;[root] provider[&quot;registry.terraform.io/tailscale/tailscale&quot;]</title>
<path fill="none" stroke="#000000" d="M1755.7451,-71.8314C1755.7451,-64.131 1755.7451,-54.9743 1755.7451,-46.4166"/>
<polygon fill="#000000" stroke="#000000" points="1759.2452,-46.4132 1755.7451,-36.4133 1752.2452,-46.4133 1759.2452,-46.4132"/>
</g>
<!-- [root] provider[&quot;registry.terraform.io/hashicorp/aws&quot;] (close) -->
<g id="node14" class="node">
<title>[root] provider[&quot;registry.terraform.io/hashicorp/aws&quot;] (close)</title>
<ellipse fill="none" stroke="#000000" cx="624.7451" cy="-378" rx="247.2168" ry="18"/>
<text text-anchor="middle" x="624.7451" y="-373.8" font-family="Times,serif" font-size="14.00" fill="#000000">[root] provider[&quot;registry.terraform.io/hashicorp/aws&quot;] (close)</text>
</g>
<!-- [root] provider[&quot;registry.terraform.io/hashicorp/aws&quot;] (close)&#45;&gt;[root] aws_route53_record.prod_A (expand) -->
<g id="edge9" class="edge">
<title>[root] provider[&quot;registry.terraform.io/hashicorp/aws&quot;] (close)&#45;&gt;[root] aws_route53_record.prod_A (expand)</title>
<path fill="none" stroke="#000000" d="M624.7451,-359.8314C624.7451,-352.131 624.7451,-342.9743 624.7451,-334.4166"/>
<polygon fill="#000000" stroke="#000000" points="628.2452,-334.4132 624.7451,-324.4133 621.2452,-334.4133 628.2452,-334.4132"/>
</g>
<!-- [root] provider[&quot;registry.terraform.io/hashicorp/aws&quot;] (close)&#45;&gt;[root] aws_route53_record.prod_AAAA (expand) -->
<g id="edge10" class="edge">
<title>[root] provider[&quot;registry.terraform.io/hashicorp/aws&quot;] (close)&#45;&gt;[root] aws_route53_record.prod_AAAA (expand)</title>
<path fill="none" stroke="#000000" d="M676.1169,-360.3868C705.1525,-350.4318 741.6669,-337.9125 772.3412,-327.3956"/>
<polygon fill="#000000" stroke="#000000" points="773.754,-330.6113 782.0783,-324.0572 771.4836,-323.9897 773.754,-330.6113"/>
</g>
<!-- [root] provider[&quot;registry.terraform.io/hashicorp/cloudinit&quot;] (close) -->
<g id="node15" class="node">
<title>[root] provider[&quot;registry.terraform.io/hashicorp/cloudinit&quot;] (close)</title>
<ellipse fill="none" stroke="#000000" cx="1386.7451" cy="-306" rx="266.8601" ry="18"/>
<text text-anchor="middle" x="1386.7451" y="-301.8" font-family="Times,serif" font-size="14.00" fill="#000000">[root] provider[&quot;registry.terraform.io/hashicorp/cloudinit&quot;] (close)</text>
</g>
<!-- [root] provider[&quot;registry.terraform.io/hashicorp/cloudinit&quot;] (close)&#45;&gt;[root] data.cloudinit_config.prod (expand) -->
<g id="edge11" class="edge">
<title>[root] provider[&quot;registry.terraform.io/hashicorp/cloudinit&quot;] (close)&#45;&gt;[root] data.cloudinit_config.prod (expand)</title>
<path fill="none" stroke="#000000" d="M1383.0722,-287.7623C1378.1041,-263.0928 1369.196,-218.8598 1363.3786,-189.9731"/>
<polygon fill="#000000" stroke="#000000" points="1366.7936,-189.2018 1361.3882,-180.0896 1359.9314,-190.5838 1366.7936,-189.2018"/>
</g>
<!-- [root] provider[&quot;registry.terraform.io/scaleway/scaleway&quot;] (close) -->
<g id="node16" class="node">
<title>[root] provider[&quot;registry.terraform.io/scaleway/scaleway&quot;] (close)</title>
<ellipse fill="none" stroke="#000000" cx="1155.7451" cy="-378" rx="265.6505" ry="18"/>
<text text-anchor="middle" x="1155.7451" y="-373.8" font-family="Times,serif" font-size="14.00" fill="#000000">[root] provider[&quot;registry.terraform.io/scaleway/scaleway&quot;] (close)</text>
</g>
<!-- [root] provider[&quot;registry.terraform.io/scaleway/scaleway&quot;] (close)&#45;&gt;[root] scaleway_instance_server.prod (expand) -->
<g id="edge12" class="edge">
<title>[root] provider[&quot;registry.terraform.io/scaleway/scaleway&quot;] (close)&#45;&gt;[root] scaleway_instance_server.prod (expand)</title>
<path fill="none" stroke="#000000" d="M1126.8312,-360.0535C1085.0657,-334.13 1007.8055,-286.1754 961.5604,-257.4716"/>
<polygon fill="#000000" stroke="#000000" points="963.3656,-254.4726 953.0234,-252.1727 959.674,-260.4201 963.3656,-254.4726"/>
</g>
<!-- [root] provider[&quot;registry.terraform.io/tailscale/tailscale&quot;] (close) -->
<g id="node17" class="node">
<title>[root] provider[&quot;registry.terraform.io/tailscale/tailscale&quot;] (close)</title>
<ellipse fill="none" stroke="#000000" cx="1701.7451" cy="-234" rx="258.1552" ry="18"/>
<text text-anchor="middle" x="1701.7451" y="-229.8" font-family="Times,serif" font-size="14.00" fill="#000000">[root] provider[&quot;registry.terraform.io/tailscale/tailscale&quot;] (close)</text>
</g>
<!-- [root] provider[&quot;registry.terraform.io/tailscale/tailscale&quot;] (close)&#45;&gt;[root] tailscale_tailnet_key.prod (expand) -->
<g id="edge14" class="edge">
<title>[root] provider[&quot;registry.terraform.io/tailscale/tailscale&quot;] (close)&#45;&gt;[root] tailscale_tailnet_key.prod (expand)</title>
<path fill="none" stroke="#000000" d="M1708.5843,-215.7623C1717.8759,-190.9846 1734.5683,-146.4714 1745.3974,-117.5939"/>
<polygon fill="#000000" stroke="#000000" points="1748.7274,-118.6819 1748.9615,-108.0896 1742.1731,-116.224 1748.7274,-118.6819"/>
</g>
<!-- [root] root -->
<g id="node18" class="node">
<title>[root] root</title>
<ellipse fill="none" stroke="#000000" cx="1302.7451" cy="-450" rx="50.9823" ry="18"/>
<text text-anchor="middle" x="1302.7451" y="-445.8" font-family="Times,serif" font-size="14.00" fill="#000000">[root] root</text>
</g>
<!-- [root] root&#45;&gt;[root] provider[&quot;registry.terraform.io/hashicorp/aws&quot;] (close) -->
<g id="edge15" class="edge">
<title>[root] root&#45;&gt;[root] provider[&quot;registry.terraform.io/hashicorp/aws&quot;] (close)</title>
<path fill="none" stroke="#000000" d="M1253.7123,-444.793C1154.77,-434.2858 927.6858,-410.1707 775.2125,-393.9788"/>
<polygon fill="#000000" stroke="#000000" points="775.1367,-390.4512 764.8229,-392.8755 774.3974,-397.412 775.1367,-390.4512"/>
</g>
<!-- [root] root&#45;&gt;[root] provider[&quot;registry.terraform.io/hashicorp/cloudinit&quot;] (close) -->
<g id="edge16" class="edge">
<title>[root] root&#45;&gt;[root] provider[&quot;registry.terraform.io/hashicorp/cloudinit&quot;] (close)</title>
<path fill="none" stroke="#000000" d="M1350.0744,-443.246C1378.6445,-436.4638 1412.8772,-422.9309 1430.7451,-396 1444.375,-375.4567 1429.4207,-350.0699 1413.358,-331.5018"/>
<polygon fill="#000000" stroke="#000000" points="1415.8203,-329.0082 1406.4862,-323.9956 1410.6571,-333.7349 1415.8203,-329.0082"/>
</g>
<!-- [root] root&#45;&gt;[root] provider[&quot;registry.terraform.io/scaleway/scaleway&quot;] (close) -->
<g id="edge17" class="edge">
<title>[root] root&#45;&gt;[root] provider[&quot;registry.terraform.io/scaleway/scaleway&quot;] (close)</title>
<path fill="none" stroke="#000000" d="M1272.6428,-435.256C1252.102,-425.1952 1224.5162,-411.6838 1201.3006,-400.3129"/>
<polygon fill="#000000" stroke="#000000" points="1202.8334,-397.1664 1192.3132,-395.9109 1199.7542,-403.4528 1202.8334,-397.1664"/>
</g>
<!-- [root] root&#45;&gt;[root] provider[&quot;registry.terraform.io/tailscale/tailscale&quot;] (close) -->
<g id="edge18" class="edge">
<title>[root] root&#45;&gt;[root] provider[&quot;registry.terraform.io/tailscale/tailscale&quot;] (close)</title>
<path fill="none" stroke="#000000" d="M1352.226,-445.2405C1428.1841,-435.4575 1574.0211,-406.536 1662.7451,-324 1680.4763,-307.5055 1690.5428,-281.5634 1695.9886,-261.7603"/>
<polygon fill="#000000" stroke="#000000" points="1699.3868,-262.5983 1698.4314,-252.0467 1692.5982,-260.8911 1699.3868,-262.5983"/>
</g>
</g>
</svg>