<?xml version="1.0" encoding="UTF-8" standalone="no"?>
<!DOCTYPE svg PUBLIC "-//W3C//DTD SVG 1.1//EN"
 "http://www.w3.org/Graphics/SVG/1.1/DTD/svg11.dtd">
<!-- Generated by graphviz version 2.40.1 (20161225.0304)
 -->
<!-- Title: %0 Pages: 1 -->
<svg width="679pt" height="293pt"
 viewBox="0.00 0.00 678.93 293.00" xmlns="http://www.w3.org/2000/svg" xmlns:xlink="http://www.w3.org/1999/xlink">
<g id="graph0" class="graph" transform="scale(1 1) rotate(0) translate(4 289)">
<title>%0</title>
<polygon fill="#ffffff" stroke="transparent" points="-4,4 -4,-289 674.9278,-289 674.9278,4 -4,4"/>
<g id="clust1" class="cluster">
<title>cluster_0</title>
<polygon fill="#d3d3d3" stroke="#d3d3d3" points="548.5112,-80 548.5112,-211 662.9278,-211 662.9278,-80 548.5112,-80"/>
<text text-anchor="middle" x="605.7195" y="-194.4" font-family="Times,serif" font-size="14.00" fill="#000000">ghcr images</text>
</g>
<!-- ghcrxesite -->
<g id="node1" class="node">
<title>ghcrxesite</title>
<polygon fill="none" stroke="#000000" points="643.047,-124 568.392,-124 568.392,-88 643.047,-88 643.047,-124"/>
<text text-anchor="middle" x="605.7195" y="-101.8" font-family="Times,serif" font-size="14.00" fill="#000000">xe/site/bin</text>
</g>
<!-- ghcrpatreon -->
<g id="node2" class="node">
<title>ghcrpatreon</title>
<polygon fill="none" stroke="#000000" points="655.137,-178 556.302,-178 556.302,-142 655.137,-142 655.137,-178"/>
<text text-anchor="middle" x="605.7195" y="-155.8" font-family="Times,serif" font-size="14.00" fill="#000000">xe/site/patreon</text>
</g>
<!-- src -->
<g id="node3" class="node">
<title>src</title>
<ellipse fill="none" stroke="#000000" cx="83.7166" cy="-267" rx="27" ry="18"/>
<text text-anchor="middle" x="83.7166" y="-262.8" font-family="Times,serif" font-size="14.00" fill="#000000">./*</text>
</g>
<!-- deps -->
<g id="node6" class="node">
<title>deps</title>
<polygon fill="none" stroke="#000000" points="270.3763,-262 216.3763,-262 216.3763,-226 270.3763,-226 270.3763,-262"/>
<text text-anchor="middle" x="243.3763" y="-239.8" font-family="Times,serif" font-size="14.00" fill="#000000">+deps</text>
</g>
<!-- src&#45;&gt;deps -->
<g id="edge1" class="edge">
<title>src&#45;&gt;deps</title>
<path fill="none" stroke="#000000" d="M110.44,-263.1503C136.6097,-259.3804 176.7143,-253.6031 206.0314,-249.3798"/>
<polygon fill="#000000" stroke="#000000" points="206.8998,-252.7909 216.2986,-247.9007 205.9017,-245.8624 206.8998,-252.7909"/>
</g>
<!-- buildpatreon -->
<g id="node9" class="node">
<title>buildpatreon</title>
<polygon fill="none" stroke="#000000" points="418.7951,-274 319.1605,-274 319.1605,-238 418.7951,-238 418.7951,-274"/>
<text text-anchor="middle" x="368.9778" y="-251.8" font-family="Times,serif" font-size="14.00" fill="#000000">+build&#45;patreon</text>
</g>
<!-- src&#45;&gt;buildpatreon -->
<g id="edge7" class="edge">
<title>src&#45;&gt;buildpatreon</title>
<path fill="none" stroke="#000000" d="M110.5738,-269.3504C148.9578,-272.2981 221.6832,-276.3559 283.3194,-271 291.6436,-270.2767 300.372,-269.165 308.9408,-267.8668"/>
<polygon fill="#000000" stroke="#000000" points="309.574,-271.31 318.8928,-266.2691 308.4644,-264.3985 309.574,-271.31"/>
</g>
<!-- buildxesite -->
<g id="node11" class="node">
<title>buildxesite</title>
<polygon fill="none" stroke="#000000" points="413.9692,-220 323.9864,-220 323.9864,-184 413.9692,-184 413.9692,-220"/>
<text text-anchor="middle" x="368.9778" y="-197.8" font-family="Times,serif" font-size="14.00" fill="#000000">+build&#45;xesite</text>
</g>
<!-- src&#45;&gt;buildxesite -->
<g id="edge9" class="edge">
<title>src&#45;&gt;buildxesite</title>
<path fill="none" stroke="#000000" d="M109.2708,-260.5985C126.1919,-255.918 148.6447,-248.8511 167.4332,-240 184.6094,-231.9085 185.4676,-223.1425 203.4332,-217 238.791,-204.911 280.7333,-201.2138 313.5532,-200.512"/>
<polygon fill="#000000" stroke="#000000" points="313.9133,-204.0078 323.8686,-200.3825 313.8254,-197.0084 313.9133,-204.0078"/>
</g>
<!-- golang -->
<g id="node4" class="node">
<title>golang</title>
<ellipse fill="none" stroke="#000000" cx="83.7166" cy="-213" rx="83.9338" ry="18"/>
<text text-anchor="middle" x="83.7166" y="-208.8" font-family="Times,serif" font-size="14.00" fill="#000000">golang:1.22&#45;alpine</text>
</g>
<!-- golang&#45;&gt;deps -->
<g id="edge2" class="edge">
<title>golang&#45;&gt;deps</title>
<path fill="none" stroke="#000000" d="M145.9024,-225.0742C166.2501,-229.0249 188.2076,-233.2883 206.1218,-236.7665"/>
<polygon fill="#000000" stroke="#000000" points="205.6755,-240.2452 216.1594,-238.7155 207.0098,-233.3735 205.6755,-240.2452"/>
</g>
<!-- alpine -->
<g id="node5" class="node">
<title>alpine</title>
<ellipse fill="none" stroke="#000000" cx="83.7166" cy="-87" rx="55.5966" ry="18"/>
<text text-anchor="middle" x="83.7166" y="-82.8" font-family="Times,serif" font-size="14.00" fill="#000000">alpine:edge</text>
</g>
<!-- fonts -->
<g id="node7" class="node">
<title>fonts</title>
<polygon fill="none" stroke="#000000" points="270.3763,-36 216.3763,-36 216.3763,0 270.3763,0 270.3763,-36"/>
<text text-anchor="middle" x="243.3763" y="-13.8" font-family="Times,serif" font-size="14.00" fill="#000000">+fonts</text>
</g>
<!-- alpine&#45;&gt;fonts -->
<g id="edge3" class="edge">
<title>alpine&#45;&gt;fonts</title>
<path fill="none" stroke="#000000" d="M117.1865,-72.5353C143.4098,-61.2024 179.8468,-45.4555 206.8285,-33.7948"/>
<polygon fill="#000000" stroke="#000000" points="208.514,-36.8794 216.3049,-29.6994 205.737,-30.4537 208.514,-36.8794"/>
</g>
<!-- dhalljson -->
<g id="node8" class="node">
<title>dhalljson</title>
<polygon fill="none" stroke="#000000" points="283.2626,-128 203.49,-128 203.49,-92 283.2626,-92 283.2626,-128"/>
<text text-anchor="middle" x="243.3763" y="-105.8" font-family="Times,serif" font-size="14.00" fill="#000000">+dhall&#45;json</text>
</g>
<!-- alpine&#45;&gt;dhalljson -->
<g id="edge4" class="edge">
<title>alpine&#45;&gt;dhalljson</title>
<path fill="none" stroke="#000000" d="M134.6729,-94.3406C153.3842,-97.0361 174.5414,-100.0839 193.185,-102.7696"/>
<polygon fill="#000000" stroke="#000000" points="192.8556,-106.2582 203.2525,-104.2199 193.8537,-99.3297 192.8556,-106.2582"/>
</g>
<!-- patreon -->
<g id="node10" class="node">
<title>patreon</title>
<polygon fill="none" stroke="#000000" points="520.4488,-178 454.6986,-178 454.6986,-142 520.4488,-142 520.4488,-178"/>
<text text-anchor="middle" x="487.5737" y="-155.8" font-family="Times,serif" font-size="14.00" fill="#000000">+patreon</text>
</g>
<!-- alpine&#45;&gt;patreon -->
<g id="edge11" class="edge">
<title>alpine&#45;&gt;patreon</title>
<path fill="none" stroke="#000000" d="M113.3312,-102.4634C137.032,-114.069 171.4767,-129.2406 203.4332,-137 287.0198,-157.2957 388.0747,-160.6347 444.3537,-160.6864"/>
<polygon fill="#000000" stroke="#000000" points="444.6698,-164.1857 454.6605,-160.6591 444.6512,-157.1857 444.6698,-164.1857"/>
</g>
<!-- xesite -->
<g id="node12" class="node">
<title>xesite</title>
<polygon fill="none" stroke="#000000" points="515.6251,-124 459.5223,-124 459.5223,-88 515.6251,-88 515.6251,-124"/>
<text text-anchor="middle" x="487.5737" y="-101.8" font-family="Times,serif" font-size="14.00" fill="#000000">+xesite</text>
</g>
<!-- alpine&#45;&gt;xesite -->
<g id="edge13" class="edge">
<title>alpine&#45;&gt;xesite</title>
<path fill="none" stroke="#000000" d="M139.1374,-84.7623C159.3681,-84.0473 182.4324,-83.3507 203.4332,-83 238.9332,-82.4071 247.8702,-81.0104 283.3194,-83 341.3325,-86.256 408.1787,-94.6747 449.1526,-100.3715"/>
<polygon fill="#000000" stroke="#000000" points="448.8514,-103.8635 459.2418,-101.7921 449.8275,-96.9319 448.8514,-103.8635"/>
</g>
<!-- deps&#45;&gt;buildpatreon -->
<g id="edge5" class="edge">
<title>deps&#45;&gt;buildpatreon</title>
<path fill="none" stroke="#000000" d="M270.63,-246.6038C281.9563,-247.6859 295.5827,-248.9878 309.034,-250.273"/>
<polygon fill="#000000" stroke="#000000" points="308.9576,-253.7815 319.2452,-251.2485 309.6234,-246.8132 308.9576,-253.7815"/>
</g>
<!-- deps&#45;&gt;buildxesite -->
<g id="edge6" class="edge">
<title>deps&#45;&gt;buildxesite</title>
<path fill="none" stroke="#000000" d="M270.63,-234.8866C283.2955,-230.6514 298.8374,-225.4543 313.7942,-220.4529"/>
<polygon fill="#000000" stroke="#000000" points="315.1285,-223.6973 323.5024,-217.2066 312.9086,-217.0586 315.1285,-223.6973"/>
</g>
<!-- fonts&#45;&gt;xesite -->
<g id="edge14" class="edge">
<title>fonts&#45;&gt;xesite</title>
<path fill="none" stroke="#000000" d="M270.4481,-18.8026C305.9875,-20.7618 369.6083,-27.4313 418.6362,-50 434.837,-57.4576 450.4709,-69.6079 462.743,-80.688"/>
<polygon fill="#000000" stroke="#000000" points="460.6012,-83.4773 470.2942,-87.7547 465.3843,-78.3662 460.6012,-83.4773"/>
</g>
<!-- dhalljson&#45;&gt;xesite -->
<g id="edge15" class="edge">
<title>dhalljson&#45;&gt;xesite</title>
<path fill="none" stroke="#000000" d="M283.4271,-109.344C329.2746,-108.593 403.8484,-107.3714 449.0473,-106.6311"/>
<polygon fill="#000000" stroke="#000000" points="449.3804,-110.1262 459.3217,-106.4628 449.2657,-103.1271 449.3804,-110.1262"/>
</g>
<!-- buildpatreon&#45;&gt;patreon -->
<g id="edge8" class="edge">
<title>buildpatreon&#45;&gt;patreon</title>
<path fill="none" stroke="#000000" d="M405.274,-237.867C409.9012,-235.096 414.4705,-232.114 418.6362,-229 435.5292,-216.3717 452.303,-199.6979 465.0746,-185.9047"/>
<polygon fill="#000000" stroke="#000000" points="467.9689,-187.9238 472.1025,-178.1686 462.7877,-183.2169 467.9689,-187.9238"/>
</g>
<!-- patreon&#45;&gt;ghcrpatreon -->
<g id="edge12" class="edge">
<title>patreon&#45;&gt;ghcrpatreon</title>
<path fill="none" stroke="#000000" d="M520.4839,-160C528.434,-160 537.1764,-160 545.9396,-160"/>
<polygon fill="#000000" stroke="#000000" points="546.1901,-163.5001 556.1901,-160 546.19,-156.5001 546.1901,-163.5001"/>
</g>
<!-- buildxesite&#45;&gt;xesite -->
<g id="edge10" class="edge">
<title>buildxesite&#45;&gt;xesite</title>
<path fill="none" stroke="#000000" d="M391.2848,-183.9431C409.8847,-168.8871 436.569,-147.2868 457.1317,-130.6419"/>
<polygon fill="#000000" stroke="#000000" points="459.393,-133.3145 464.9635,-124.3023 454.9887,-127.8736 459.393,-133.3145"/>
</g>
<!-- xesite&#45;&gt;ghcrxesite -->
<g id="edge16" class="edge">
<title>xesite&#45;&gt;ghcrxesite</title>
<path fill="none" stroke="#000000" d="M515.8726,-106C528.5072,-106 543.7476,-106 558.059,-106"/>
<polygon fill="#000000" stroke="#000000" points="558.2652,-109.5001 568.2652,-106 558.2651,-102.5001 558.2652,-109.5001"/>
</g>
</g>
</svg>
