<?xml version="1.0" encoding="UTF-8" standalone="no"?>
<!DOCTYPE svg PUBLIC "-//W3C//DTD SVG 1.1//EN"
 "http://www.w3.org/Graphics/SVG/1.1/DTD/svg11.dtd">
<!-- Generated by graphviz version 2.40.1 (20161225.0304)
 -->
<!-- Title: G Pages: 1 -->
<svg width="671pt" height="332pt"
 viewBox="0.00 0.00 670.88 332.00" xmlns="http://www.w3.org/2000/svg" xmlns:xlink="http://www.w3.org/1999/xlink">
<g id="graph0" class="graph" transform="scale(1 1) rotate(0) translate(4 328)">
<title>G</title>
<polygon fill="#ffffff" stroke="transparent" points="-4,4 -4,-328 666.8816,-328 666.8816,4 -4,4"/>
<g id="clust1" class="cluster">
<title>cluster_0</title>
<polygon fill="#d3d3d3" stroke="#d3d3d3" points="150.8243,-8 150.8243,-131 525.6487,-131 525.6487,-8 150.8243,-8"/>
<text text-anchor="middle" x="338.2365" y="-114.4" font-family="Times,serif" font-size="14.00" fill="#000000">Quest</text>
</g>
<g id="clust2" class="cluster">
<title>cluster_1</title>
<polygon fill="#d3d3d3" stroke="#d3d3d3" points="8,-139 8,-316 654.8816,-316 654.8816,-139 8,-139"/>
<text text-anchor="middle" x="331.4408" y="-299.4" font-family="Times,serif" font-size="14.00" fill="#000000">PC</text>
</g>
<!-- VD -->
<g id="node1" class="node">
<title>VD</title>
<ellipse fill="#ffffff" stroke="#ffffff" cx="473.3439" cy="-63" rx="44.1104" ry="29.3315"/>
<text text-anchor="middle" x="473.3439" y="-67.2" font-family="Times,serif" font-size="14.00" fill="#000000">Virtual</text>
<text text-anchor="middle" x="473.3439" y="-50.4" font-family="Times,serif" font-size="14.00" fill="#000000">Desktop</text>
</g>
<!-- VDS -->
<g id="node4" class="node">
<title>VDS</title>
<ellipse fill="#ffffff" stroke="#ffffff" cx="333.6731" cy="-188" rx="47.086" ry="41.0911"/>
<text text-anchor="middle" x="333.6731" y="-200.6" font-family="Times,serif" font-size="14.00" fill="#000000">Virtual</text>
<text text-anchor="middle" x="333.6731" y="-183.8" font-family="Times,serif" font-size="14.00" fill="#000000">Desktop</text>
<text text-anchor="middle" x="333.6731" y="-167" font-family="Times,serif" font-size="14.00" fill="#000000">Streamer</text>
</g>
<!-- VD&#45;&gt;VDS -->
<g id="edge4" class="edge">
<title>VD&#45;&gt;VDS</title>
<path fill="none" stroke="#000000" d="M450.736,-88.362C431.0544,-107.6122 401.9557,-134.0523 377.6943,-154.9249"/>
<polygon fill="#000000" stroke="#000000" points="375.3377,-152.3348 370.0053,-161.4899 379.8831,-157.6583 375.3377,-152.3348"/>
</g>
<!-- VDM -->
<g id="node2" class="node">
<title>VDM</title>
<ellipse fill="#ffffff" stroke="#ffffff" cx="333.6731" cy="-57" rx="45.275" ry="41.0911"/>
<text text-anchor="middle" x="333.6731" y="-69.6" font-family="Times,serif" font-size="14.00" fill="#000000">Virtual</text>
<text text-anchor="middle" x="333.6731" y="-52.8" font-family="Times,serif" font-size="14.00" fill="#000000">Desktop</text>
<text text-anchor="middle" x="333.6731" y="-36" font-family="Times,serif" font-size="14.00" fill="#000000">VR mod</text>
</g>
<!-- VDM&#45;&gt;VD -->
<g id="edge3" class="edge">
<title>VDM&#45;&gt;VD</title>
<path fill="none" stroke="#000000" d="M379.0202,-58.948C391.5906,-59.488 405.3731,-60.0801 418.4262,-60.6408"/>
<polygon fill="#000000" stroke="#000000" points="418.5601,-64.1497 428.7011,-61.0822 418.8606,-57.1562 418.5601,-64.1497"/>
</g>
<!-- A -->
<g id="node3" class="node">
<title>A</title>
<ellipse fill="#ffffff" stroke="#ffffff" cx="202.0445" cy="-68" rx="43.4415" ry="18"/>
<text text-anchor="middle" x="202.0445" y="-63.8" font-family="Times,serif" font-size="14.00" fill="#000000">Android</text>
</g>
<!-- A&#45;&gt;VDM -->
<g id="edge2" class="edge">
<title>A&#45;&gt;VDM</title>
<path fill="none" stroke="#000000" d="M244.7805,-64.4286C255.4706,-63.5353 267.0909,-62.5642 278.2968,-61.6277"/>
<polygon fill="#000000" stroke="#000000" points="278.7592,-65.1014 288.433,-60.7806 278.1762,-58.1257 278.7592,-65.1014"/>
</g>
<!-- VDS&#45;&gt;VD -->
<g id="edge5" class="edge">
<title>VDS&#45;&gt;VD</title>
<path fill="none" stroke="#000000" d="M363.2937,-155.8547C384.2099,-135.824 412.4271,-110.4172 435.0521,-91.1733"/>
<polygon fill="#000000" stroke="#000000" points="437.4099,-93.7634 442.8005,-84.6424 432.8986,-88.411 437.4099,-93.7634"/>
</g>
<!-- GM -->
<g id="node9" class="node">
<title>GM</title>
<ellipse fill="#ffffff" stroke="#ffffff" cx="606.4267" cy="-216" rx="40.4098" ry="29.3315"/>
<text text-anchor="middle" x="606.4267" y="-220.2" font-family="Times,serif" font-size="14.00" fill="#000000">Google</text>
<text text-anchor="middle" x="606.4267" y="-203.4" font-family="Times,serif" font-size="14.00" fill="#000000">Meet</text>
</g>
<!-- VDS&#45;&gt;GM -->
<g id="edge6" class="edge">
<title>VDS&#45;&gt;GM</title>
<path fill="none" stroke="#000000" d="M380.5611,-192.8134C429.5797,-197.8455 506.2147,-205.7126 556.3811,-210.8625"/>
<polygon fill="#000000" stroke="#000000" points="556.0498,-214.3468 566.355,-211.8864 556.7647,-207.3834 556.0498,-214.3468"/>
</g>
<!-- SVR -->
<g id="node5" class="node">
<title>SVR</title>
<ellipse fill="#ffffff" stroke="#ffffff" cx="202.0445" cy="-188" rx="48.6714" ry="18"/>
<text text-anchor="middle" x="202.0445" y="-183.8" font-family="Times,serif" font-size="14.00" fill="#000000">SteamVR</text>
</g>
<!-- SVR&#45;&gt;VDS -->
<g id="edge10" class="edge">
<title>SVR&#45;&gt;VDS</title>
<path fill="none" stroke="#000000" d="M250.6841,-188C259.0146,-188 267.7397,-188 276.273,-188"/>
<polygon fill="#000000" stroke="#000000" points="276.5472,-191.5001 286.5471,-188 276.5471,-184.5001 276.5472,-191.5001"/>
</g>
<!-- VRC -->
<g id="node6" class="node">
<title>VRC</title>
<ellipse fill="#ffffff" stroke="#ffffff" cx="66.7294" cy="-230" rx="42.8751" ry="18"/>
<text text-anchor="middle" x="66.7294" y="-225.8" font-family="Times,serif" font-size="14.00" fill="#000000">VRChat</text>
</g>
<!-- VRC&#45;&gt;SVR -->
<g id="edge7" class="edge">
<title>VRC&#45;&gt;SVR</title>
<path fill="none" stroke="#000000" d="M101.2253,-219.293C117.6099,-214.2074 137.4417,-208.0518 155.1663,-202.5504"/>
<polygon fill="#000000" stroke="#000000" points="156.2483,-205.8793 164.7613,-199.5722 154.1732,-199.194 156.2483,-205.8793"/>
</g>
<!-- DESK -->
<g id="node11" class="node">
<title>DESK</title>
<ellipse fill="#ffffff" stroke="#ffffff" cx="202.0445" cy="-242" rx="43.4396" ry="18"/>
<text text-anchor="middle" x="202.0445" y="-237.8" font-family="Times,serif" font-size="14.00" fill="#000000">Desktop</text>
</g>
<!-- VRC&#45;&gt;DESK -->
<g id="edge12" class="edge">
<title>VRC&#45;&gt;DESK</title>
<path fill="none" stroke="#000000" d="M108.8022,-233.7311C121.6615,-234.8715 135.9668,-236.1401 149.4342,-237.3344"/>
<polygon fill="#000000" stroke="#000000" points="149.2616,-240.8328 159.5317,-238.2299 149.88,-233.8601 149.2616,-240.8328"/>
</g>
<!-- OBS -->
<g id="node7" class="node">
<title>OBS</title>
<ellipse fill="#ffffff" stroke="#ffffff" cx="333.6731" cy="-265" rx="29.6339" ry="18"/>
<text text-anchor="middle" x="333.6731" y="-260.8" font-family="Times,serif" font-size="14.00" fill="#000000">OBS</text>
</g>
<!-- VIRC -->
<g id="node8" class="node">
<title>VIRC</title>
<ellipse fill="#ffffff" stroke="#ffffff" cx="473.3439" cy="-255" rx="56.7561" ry="18"/>
<text text-anchor="middle" x="473.3439" y="-250.8" font-family="Times,serif" font-size="14.00" fill="#000000">VirtualCam</text>
</g>
<!-- OBS&#45;&gt;VIRC -->
<g id="edge8" class="edge">
<title>OBS&#45;&gt;VIRC</title>
<path fill="none" stroke="#000000" d="M363.2937,-262.8793C376.2998,-261.9481 392.129,-260.8147 407.6812,-259.7012"/>
<polygon fill="#000000" stroke="#000000" points="408.1043,-263.18 417.8288,-258.9747 407.6044,-256.1979 408.1043,-263.18"/>
</g>
<!-- VIRC&#45;&gt;GM -->
<g id="edge9" class="edge">
<title>VIRC&#45;&gt;GM</title>
<path fill="none" stroke="#000000" d="M515.087,-242.7672C529.0844,-238.6652 544.7902,-234.0626 559.1786,-229.8461"/>
<polygon fill="#000000" stroke="#000000" points="560.28,-233.1706 568.8921,-226.9995 558.3114,-226.4531 560.28,-233.1706"/>
</g>
<!-- SQ -->
<g id="node10" class="node">
<title>SQ</title>
<ellipse fill="#ffffff" stroke="#ffffff" cx="66.7294" cy="-165" rx="50.9599" ry="18"/>
<text text-anchor="middle" x="66.7294" y="-160.8" font-family="Times,serif" font-size="14.00" fill="#000000">SideQuest</text>
</g>
<!-- SQ&#45;&gt;A -->
<g id="edge1" class="edge">
<title>SQ&#45;&gt;A</title>
<path fill="none" stroke="#000000" d="M89.3781,-148.7644C111.9913,-132.5542 146.8811,-107.5436 171.8411,-89.6512"/>
<polygon fill="#000000" stroke="#000000" points="174.1309,-92.3162 180.2192,-83.6453 170.0526,-86.6269 174.1309,-92.3162"/>
</g>
<!-- DESK&#45;&gt;VDS -->
<g id="edge11" class="edge">
<title>DESK&#45;&gt;VDS</title>
<path fill="none" stroke="#000000" d="M232.9056,-229.3394C247.3882,-223.3979 265.0521,-216.1514 281.5218,-209.3948"/>
<polygon fill="#000000" stroke="#000000" points="283.1245,-212.5204 291.0478,-205.4868 280.4677,-206.0442 283.1245,-212.5204"/>
</g>
<!-- DESK&#45;&gt;OBS -->
<g id="edge13" class="edge">
<title>DESK&#45;&gt;OBS</title>
<path fill="none" stroke="#000000" d="M242.2526,-249.0257C259.0321,-251.9577 278.4424,-255.3493 295.05,-258.2512"/>
<polygon fill="#000000" stroke="#000000" points="294.5265,-261.7127 304.9797,-259.9863 295.7315,-254.8172 294.5265,-261.7127"/>
</g>
</g>
</svg>