<?xml version="1.0" encoding="UTF-8" standalone="no"?>
<!DOCTYPE svg PUBLIC "-//W3C//DTD SVG 1.1//EN"
 "http://www.w3.org/Graphics/SVG/1.1/DTD/svg11.dtd">
<!-- Generated by graphviz version 2.40.1 (20161225.0304)
 -->
<!-- Title: G Pages: 1 -->
<svg width="661pt" height="308pt"
 viewBox="0.00 0.00 661.01 308.00" xmlns="http://www.w3.org/2000/svg" xmlns:xlink="http://www.w3.org/1999/xlink">
<g id="graph0" class="graph" transform="scale(1 1) rotate(0) translate(4 304)">
<title>G</title>
<polygon fill="#ffffff" stroke="transparent" points="-4,4 -4,-304 657.0118,-304 657.0118,4 -4,4"/>
<g id="clust1" class="cluster">
<title>cluster_0</title>
<polygon fill="#d3d3d3" stroke="#d3d3d3" points="150.8243,-8 150.8243,-107 374.9943,-107 374.9943,-8 150.8243,-8"/>
<text text-anchor="middle" x="262.9093" y="-90.4" font-family="Times,serif" font-size="14.00" fill="#000000">Quest</text>
</g>
<g id="clust2" class="cluster">
<title>cluster_1</title>
<polygon fill="#d3d3d3" stroke="#d3d3d3" points="8,-115 8,-292 645.0118,-292 645.0118,-115 8,-115"/>
<text text-anchor="middle" x="326.5059" y="-275.4" font-family="Times,serif" font-size="14.00" fill="#000000">PC</text>
</g>
<!-- AVA -->
<g id="node1" class="node">
<title>AVA</title>
<ellipse fill="#ffffff" stroke="#ffffff" cx="328.7382" cy="-45" rx="38.0139" ry="29.3315"/>
<text text-anchor="middle" x="328.7382" y="-49.2" font-family="Times,serif" font-size="14.00" fill="#000000">ALVR</text>
<text text-anchor="middle" x="328.7382" y="-32.4" font-family="Times,serif" font-size="14.00" fill="#000000">Quest</text>
</g>
<!-- AVR -->
<g id="node3" class="node">
<title>AVR</title>
<ellipse fill="#ffffff" stroke="#ffffff" cx="328.7382" cy="-164" rx="42.2164" ry="29.3315"/>
<text text-anchor="middle" x="328.7382" y="-168.2" font-family="Times,serif" font-size="14.00" fill="#000000">ALVR</text>
<text text-anchor="middle" x="328.7382" y="-151.4" font-family="Times,serif" font-size="14.00" fill="#000000">desktop</text>
</g>
<!-- AVA&#45;&gt;AVR -->
<g id="edge7" class="edge">
<title>AVA&#45;&gt;AVR</title>
<path fill="none" stroke="#000000" d="M328.7382,-74.75C328.7382,-91.2066 328.7382,-107.6631 328.7382,-124.1197"/>
<polygon fill="#000000" stroke="#000000" points="325.2383,-124.3662 328.7382,-134.3662 332.2383,-124.3662 325.2383,-124.3662"/>
</g>
<!-- A -->
<g id="node2" class="node">
<title>A</title>
<ellipse fill="#ffffff" stroke="#ffffff" cx="202.0445" cy="-50" rx="43.4415" ry="18"/>
<text text-anchor="middle" x="202.0445" y="-45.8" font-family="Times,serif" font-size="14.00" fill="#000000">Android</text>
</g>
<!-- A&#45;&gt;AVA -->
<g id="edge1" class="edge">
<title>A&#45;&gt;AVA</title>
<path fill="none" stroke="#000000" d="M245.2909,-48.2933C256.4871,-47.8514 268.6178,-47.3727 280.071,-46.9207"/>
<polygon fill="#000000" stroke="#000000" points="280.4983,-50.4066 290.3525,-46.5149 280.2222,-43.4121 280.4983,-50.4066"/>
</g>
<!-- AVR&#45;&gt;AVA -->
<g id="edge6" class="edge">
<title>AVR&#45;&gt;AVA</title>
<path fill="none" stroke="#000000" d="M328.7382,-134.3662C328.7382,-117.9097 328.7382,-101.4531 328.7382,-84.9965"/>
<polygon fill="#000000" stroke="#000000" points="332.2383,-84.75 328.7382,-74.75 325.2383,-84.75 332.2383,-84.75"/>
</g>
<!-- VAC -->
<g id="node11" class="node">
<title>VAC</title>
<ellipse fill="#ffffff" stroke="#ffffff" cx="463.4742" cy="-164" rx="39.2066" ry="41.0911"/>
<text text-anchor="middle" x="463.4742" y="-176.6" font-family="Times,serif" font-size="14.00" fill="#000000">Virtual</text>
<text text-anchor="middle" x="463.4742" y="-159.8" font-family="Times,serif" font-size="14.00" fill="#000000">Audio</text>
<text text-anchor="middle" x="463.4742" y="-143" font-family="Times,serif" font-size="14.00" fill="#000000">Cable</text>
</g>
<!-- AVR&#45;&gt;VAC -->
<g id="edge12" class="edge">
<title>AVR&#45;&gt;VAC</title>
<path fill="none" stroke="#000000" d="M370.9998,-164C384.6622,-164 399.9322,-164 414.0648,-164"/>
<polygon fill="#000000" stroke="#000000" points="414.1153,-167.5001 424.1152,-164 414.1152,-160.5001 414.1153,-167.5001"/>
</g>
<!-- SVR -->
<g id="node4" class="node">
<title>SVR</title>
<ellipse fill="#ffffff" stroke="#ffffff" cx="202.0445" cy="-170" rx="48.6714" ry="18"/>
<text text-anchor="middle" x="202.0445" y="-165.8" font-family="Times,serif" font-size="14.00" fill="#000000">SteamVR</text>
</g>
<!-- SVR&#45;&gt;AVR -->
<g id="edge5" class="edge">
<title>SVR&#45;&gt;AVR</title>
<path fill="none" stroke="#000000" d="M250.3034,-167.7145C258.7549,-167.3143 267.5869,-166.896 276.1488,-166.4905"/>
<polygon fill="#000000" stroke="#000000" points="276.5916,-169.9736 286.4148,-166.0044 276.2604,-162.9814 276.5916,-169.9736"/>
</g>
<!-- VRC -->
<g id="node5" class="node">
<title>VRC</title>
<ellipse fill="#ffffff" stroke="#ffffff" cx="66.7294" cy="-206" rx="42.8751" ry="18"/>
<text text-anchor="middle" x="66.7294" y="-201.8" font-family="Times,serif" font-size="14.00" fill="#000000">VRChat</text>
</g>
<!-- VRC&#45;&gt;SVR -->
<g id="edge4" class="edge">
<title>VRC&#45;&gt;SVR</title>
<path fill="none" stroke="#000000" d="M102.9914,-196.3527C118.1616,-192.3167 136.0376,-187.5609 152.3981,-183.2082"/>
<polygon fill="#000000" stroke="#000000" points="153.5873,-186.5137 162.3513,-180.5602 151.7875,-179.749 153.5873,-186.5137"/>
</g>
<!-- DESK -->
<g id="node10" class="node">
<title>DESK</title>
<ellipse fill="#ffffff" stroke="#ffffff" cx="202.0445" cy="-229" rx="43.4396" ry="18"/>
<text text-anchor="middle" x="202.0445" y="-224.8" font-family="Times,serif" font-size="14.00" fill="#000000">Desktop</text>
</g>
<!-- VRC&#45;&gt;DESK -->
<g id="edge10" class="edge">
<title>VRC&#45;&gt;DESK</title>
<path fill="none" stroke="#000000" d="M106.5966,-212.7764C120.7849,-215.188 136.9469,-217.9351 151.8865,-220.4745"/>
<polygon fill="#000000" stroke="#000000" points="151.5496,-223.9673 161.9947,-222.1926 152.7227,-217.0663 151.5496,-223.9673"/>
</g>
<!-- OBS -->
<g id="node6" class="node">
<title>OBS</title>
<ellipse fill="#ffffff" stroke="#ffffff" cx="328.7382" cy="-235" rx="29.6339" ry="18"/>
<text text-anchor="middle" x="328.7382" y="-230.8" font-family="Times,serif" font-size="14.00" fill="#000000">OBS</text>
</g>
<!-- VIRC -->
<g id="node7" class="node">
<title>VIRC</title>
<ellipse fill="#ffffff" stroke="#ffffff" cx="463.4742" cy="-241" rx="56.7561" ry="18"/>
<text text-anchor="middle" x="463.4742" y="-236.8" font-family="Times,serif" font-size="14.00" fill="#000000">VirtualCam</text>
</g>
<!-- OBS&#45;&gt;VIRC -->
<g id="edge8" class="edge">
<title>OBS&#45;&gt;VIRC</title>
<path fill="none" stroke="#000000" d="M358.6405,-236.3316C370.0698,-236.8406 383.6086,-237.4435 397.0947,-238.044"/>
<polygon fill="#000000" stroke="#000000" points="397.2155,-241.5528 407.3614,-238.5012 397.527,-234.5597 397.2155,-241.5528"/>
</g>
<!-- GM -->
<g id="node8" class="node">
<title>GM</title>
<ellipse fill="#ffffff" stroke="#ffffff" cx="596.5569" cy="-197" rx="40.4098" ry="29.3315"/>
<text text-anchor="middle" x="596.5569" y="-201.2" font-family="Times,serif" font-size="14.00" fill="#000000">Google</text>
<text text-anchor="middle" x="596.5569" y="-184.4" font-family="Times,serif" font-size="14.00" fill="#000000">Meet</text>
</g>
<!-- VIRC&#45;&gt;GM -->
<g id="edge9" class="edge">
<title>VIRC&#45;&gt;GM</title>
<path fill="none" stroke="#000000" d="M503.043,-227.9177C517.7504,-223.0551 534.5739,-217.4929 549.8596,-212.4391"/>
<polygon fill="#000000" stroke="#000000" points="551.2489,-215.6662 559.6447,-209.204 549.0515,-209.02 551.2489,-215.6662"/>
</g>
<!-- SQ -->
<g id="node9" class="node">
<title>SQ</title>
<ellipse fill="#ffffff" stroke="#ffffff" cx="66.7294" cy="-141" rx="50.9599" ry="18"/>
<text text-anchor="middle" x="66.7294" y="-136.8" font-family="Times,serif" font-size="14.00" fill="#000000">SideQuest</text>
</g>
<!-- SQ&#45;&gt;AVA -->
<g id="edge3" class="edge">
<title>SQ&#45;&gt;AVA</title>
<path fill="none" stroke="#000000" d="M103.9261,-128.7112C141.2245,-116.2351 200.2025,-96.0887 250.6301,-77 262.0869,-72.6632 274.3899,-67.7466 285.765,-63.0913"/>
<polygon fill="#000000" stroke="#000000" points="287.15,-66.3061 295.0628,-59.2607 284.4835,-59.8339 287.15,-66.3061"/>
</g>
<!-- SQ&#45;&gt;A -->
<g id="edge2" class="edge">
<title>SQ&#45;&gt;A</title>
<path fill="none" stroke="#000000" d="M90.6096,-124.9405C112.7736,-110.0351 145.9219,-87.7427 170.305,-71.3449"/>
<polygon fill="#000000" stroke="#000000" points="172.5102,-74.0798 178.8551,-65.595 168.6038,-68.2712 172.5102,-74.0798"/>
</g>
<!-- DESK&#45;&gt;OBS -->
<g id="edge11" class="edge">
<title>DESK&#45;&gt;OBS</title>
<path fill="none" stroke="#000000" d="M245.2909,-231.0481C259.3432,-231.7136 274.8677,-232.4488 288.6771,-233.1028"/>
<polygon fill="#000000" stroke="#000000" points="288.6958,-236.6075 298.8502,-233.5846 289.027,-229.6153 288.6958,-236.6075"/>
</g>
<!-- VAC&#45;&gt;GM -->
<g id="edge13" class="edge">
<title>VAC&#45;&gt;GM</title>
<path fill="none" stroke="#000000" d="M501.9672,-173.545C516.4509,-177.1364 533.1046,-181.266 548.3623,-185.0494"/>
<polygon fill="#000000" stroke="#000000" points="547.6019,-188.4668 558.1504,-187.4765 549.2867,-181.6725 547.6019,-188.4668"/>
</g>
</g>
</svg>