<?xml version="1.0" encoding="UTF-8" standalone="no"?>
<!DOCTYPE svg PUBLIC "-//W3C//DTD SVG 1.1//EN"
 "http://www.w3.org/Graphics/SVG/1.1/DTD/svg11.dtd">
<!-- Generated by graphviz version 2.40.1 (20161225.0304)
 -->
<!-- Title: G Pages: 1 -->
<svg width="610pt" height="123pt"
 viewBox="0.00 0.00 609.61 123.00" xmlns="http://www.w3.org/2000/svg" xmlns:xlink="http://www.w3.org/1999/xlink">
<g id="graph0" class="graph" transform="scale(1 1) rotate(0) translate(4 119)">
<title>G</title>
<polygon fill="#ffffff" stroke="transparent" points="-4,4 -4,-119 605.611,-119 605.611,4 -4,4"/>
<g id="clust1" class="cluster">
<title>cluster_1</title>
<polygon fill="#d3d3d3" stroke="#d3d3d3" points="8,-8 8,-107 593.611,-107 593.611,-8 8,-8"/>
<text text-anchor="middle" x="300.8055" y="-90.4" font-family="Times,serif" font-size="14.00" fill="#000000">PC</text>
</g>
<!-- VRC -->
<g id="node1" class="node">
<title>VRC</title>
<ellipse fill="#ffffff" stroke="#ffffff" cx="58.6871" cy="-45" rx="42.8751" ry="18"/>
<text text-anchor="middle" x="58.6871" y="-40.8" font-family="Times,serif" font-size="14.00" fill="#000000">VRChat</text>
</g>
<!-- DESK -->
<g id="node5" class="node">
<title>DESK</title>
<ellipse fill="#ffffff" stroke="#ffffff" cx="180.5935" cy="-45" rx="43.4396" ry="18"/>
<text text-anchor="middle" x="180.5935" y="-40.8" font-family="Times,serif" font-size="14.00" fill="#000000">Desktop</text>
</g>
<!-- VRC&#45;&gt;DESK -->
<g id="edge3" class="edge">
<title>VRC&#45;&gt;DESK</title>
<path fill="none" stroke="#000000" d="M101.6668,-45C109.8542,-45 118.5168,-45 126.9873,-45"/>
<polygon fill="#000000" stroke="#000000" points="127.1794,-48.5001 137.1794,-45 127.1793,-41.5001 127.1794,-48.5001"/>
</g>
<!-- OBS -->
<g id="node2" class="node">
<title>OBS</title>
<ellipse fill="#ffffff" stroke="#ffffff" cx="289.6291" cy="-45" rx="29.6339" ry="18"/>
<text text-anchor="middle" x="289.6291" y="-40.8" font-family="Times,serif" font-size="14.00" fill="#000000">OBS</text>
</g>
<!-- VIRC -->
<g id="node3" class="node">
<title>VIRC</title>
<ellipse fill="#ffffff" stroke="#ffffff" cx="412.0734" cy="-45" rx="56.7561" ry="18"/>
<text text-anchor="middle" x="412.0734" y="-40.8" font-family="Times,serif" font-size="14.00" fill="#000000">VirtualCam</text>
</g>
<!-- OBS&#45;&gt;VIRC -->
<g id="edge1" class="edge">
<title>OBS&#45;&gt;VIRC</title>
<path fill="none" stroke="#000000" d="M319.5824,-45C327.4013,-45 336.1504,-45 345.0646,-45"/>
<polygon fill="#000000" stroke="#000000" points="345.1584,-48.5001 355.1584,-45 345.1584,-41.5001 345.1584,-48.5001"/>
</g>
<!-- GM -->
<g id="node4" class="node">
<title>GM</title>
<ellipse fill="#ffffff" stroke="#ffffff" cx="545.1562" cy="-45" rx="40.4098" ry="29.3315"/>
<text text-anchor="middle" x="545.1562" y="-49.2" font-family="Times,serif" font-size="14.00" fill="#000000">Google</text>
<text text-anchor="middle" x="545.1562" y="-32.4" font-family="Times,serif" font-size="14.00" fill="#000000">Meet</text>
</g>
<!-- VIRC&#45;&gt;GM -->
<g id="edge2" class="edge">
<title>VIRC&#45;&gt;GM</title>
<path fill="none" stroke="#000000" d="M468.8985,-45C477.4369,-45 486.1935,-45 494.5894,-45"/>
<polygon fill="#000000" stroke="#000000" points="494.6128,-48.5001 504.6128,-45 494.6128,-41.5001 494.6128,-48.5001"/>
</g>
<!-- DESK&#45;&gt;OBS -->
<g id="edge4" class="edge">
<title>DESK&#45;&gt;OBS</title>
<path fill="none" stroke="#000000" d="M224.0006,-45C232.4355,-45 241.241,-45 249.5623,-45"/>
<polygon fill="#000000" stroke="#000000" points="249.7795,-48.5001 259.7795,-45 249.7795,-41.5001 249.7795,-48.5001"/>
</g>
</g>
</svg>