<svg width="232pt" height="298pt"
 viewBox="0.00 0.00 232.24 297.83" xmlns="http://www.w3.org/2000/svg" xmlns:xlink="http://www.w3.org/1999/xlink">
 <g id="graph0" class="graph" transform="scale(1 1) rotate(0) translate(4 293.8313)">
 <title>G</title>
 <polygon fill="#ffffff" stroke="transparent" points="-4,4 -4,-293.8313 228.2424,-293.8313 228.2424,4 -4,4"/>
 <!-- nvme0 -->
 <g id="node1" class="node">
 <title>nvme0</title>
 <ellipse fill="none" stroke="#000000" cx="162.6135" cy="-106.4156" rx="38.622" ry="29.3315"/>
 <text text-anchor="middle" x="162.6135" y="-110.6156" font-family="Times,serif" font-size="14.00" fill="#000000">NixOS</text>
 <text text-anchor="middle" x="162.6135" y="-93.8156" font-family="Times,serif" font-size="14.00" fill="#000000">(ext4)</text>
 </g>
 <!-- nvme1 -->
 <g id="node2" class="node">
 <title>nvme1</title>
 <ellipse fill="none" stroke="#000000" cx="162.6135" cy="-29.4156" rx="61.758" ry="29.3315"/>
 <text text-anchor="middle" x="162.6135" y="-33.6156" font-family="Times,serif" font-size="14.00" fill="#000000">Windows 10</text>
 <text text-anchor="middle" x="162.6135" y="-16.8156" font-family="Times,serif" font-size="14.00" fill="#000000">(ntfs)</text>
 </g>
 <!-- sda -->
 <g id="node3" class="node">
 <title>sda</title>
 <ellipse fill="none" stroke="#000000" cx="162.6135" cy="-260.4156" rx="43.3909" ry="29.3315"/>
 <text text-anchor="middle" x="162.6135" y="-264.6156" font-family="Times,serif" font-size="14.00" fill="#000000">Archive</text>
 <text text-anchor="middle" x="162.6135" y="-247.8156" font-family="Times,serif" font-size="14.00" fill="#000000">(btrfs)</text>
 </g>
 <!-- sdb -->
 <g id="node4" class="node">
 <title>sdb</title>
 <ellipse fill="none" stroke="#000000" cx="162.6135" cy="-183.4156" rx="36.0933" ry="29.3315"/>
 <text text-anchor="middle" x="162.6135" y="-187.6156" font-family="Times,serif" font-size="14.00" fill="#000000">Data</text>
 <text text-anchor="middle" x="162.6135" y="-170.8156" font-family="Times,serif" font-size="14.00" fill="#000000">(btrfs)</text>
 </g>
 <!-- nvme -->
 <g id="node5" class="node">
 <title>nvme</title>
 <ellipse fill="none" stroke="#000000" cx="32.4923" cy="-68.4156" rx="32.4846" ry="18"/>
 <text text-anchor="middle" x="32.4923" y="-64.2156" font-family="Times,serif" font-size="14.00" fill="#000000">nvme</text>
 </g>
 <!-- nvme&#45;&gt;nvme0 -->
 <g id="edge1" class="edge">
 <title>nvme&#45;&gt;nvme0</title>
 <path fill="none" stroke="#000000" d="M61.3704,-76.8491C77.6178,-81.5939 98.2793,-87.6278 116.6947,-93.0057"/>
 <polygon fill="#000000" stroke="#000000" points="115.7873,-96.3869 126.3675,-95.8305 117.7496,-89.6675 115.7873,-96.3869"/>
 </g>
 <!-- nvme&#45;&gt;nvme1 -->
 <g id="edge2" class="edge">
 <title>nvme&#45;&gt;nvme1</title>
 <path fill="none" stroke="#000000" d="M61.3704,-59.7603C72.9382,-56.2932 86.7437,-52.1554 100.3829,-48.0674"/>
 <polygon fill="#000000" stroke="#000000" points="101.6766,-51.3336 110.2507,-45.1099 99.6668,-44.6283 101.6766,-51.3336"/>
 </g>
 <!-- sata -->
 <g id="node6" class="node">
 <title>sata</title>
 <ellipse fill="none" stroke="#000000" cx="32.4923" cy="-221.4156" rx="27" ry="18"/>
 <text text-anchor="middle" x="32.4923" y="-217.2156" font-family="Times,serif" font-size="14.00" fill="#000000">sata</text>
 </g>
 <!-- sata&#45;&gt;sda -->
 <g id="edge3" class="edge">
 <title>sata&#45;&gt;sda</title>
 <path fill="none" stroke="#000000" d="M57.2734,-228.843C73.0341,-233.5669 93.9942,-239.849 113.0656,-245.5651"/>
 <polygon fill="#000000" stroke="#000000" points="112.2452,-248.973 122.8291,-248.4914 114.255,-242.2677 112.2452,-248.973"/>
 </g>
 <!-- sata&#45;&gt;sdb -->
 <g id="edge4" class="edge">
 <title>sata&#45;&gt;sdb</title>
 <path fill="none" stroke="#000000" d="M57.2734,-214.1787C74.6362,-209.1081 98.309,-202.1948 118.8154,-196.2062"/>
 <polygon fill="#000000" stroke="#000000" points="119.9685,-199.5158 128.5864,-193.3528 118.0061,-192.7964 119.9685,-199.5158"/>
 </g>
 </g>
 </svg>
